<?xml version="1.0" standalone="no"?>
<!DOCTYPE svg PUBLIC "-//W3C//DTD SVG 20010904//EN"
 "http://www.w3.org/TR/2001/REC-SVG-20010904/DTD/svg10.dtd">
<svg version="1.0" xmlns="http://www.w3.org/2000/svg"
 width="189.000000pt" height="189.000000pt" viewBox="0 0 189.000000 189.000000"
 preserveAspectRatio="xMidYMid meet">

<g transform="translate(0.000000,189.000000) scale(0.100000,-0.100000)"
fill="#000000" stroke="none">
<path d="M279 1521 l-29 -29 0 -462 c0 -508 -1 -497 62 -519 19 -7 126 -11
272 -11 l241 0 0 -25 c0 -24 -3 -25 -58 -25 -51 0 -62 -4 -88 -29 -17 -17 -29
-40 -29 -55 l0 -26 295 0 295 0 0 26 c0 15 -12 38 -29 55 -26 25 -37 29 -88
29 -55 0 -58 1 -58 25 l0 25 118 0 c71 0 117 4 117 10 0 13 47 13 55 0 8 -13
184 -13 223 1 63 22 62 11 62 519 l0 462 -29 29 -29 29 -546 0 c-348 0 -546
-4 -546 -10 0 -6 199 -11 545 -12 507 -3 546 -4 562 -21 16 -16 18 -44 21
-292 l3 -275 -26 0 c-24 0 -25 2 -25 70 0 102 0 102 -245 98 -230 -4 -225 -1
-225 -105 l0 -63 -65 0 -65 0 0 63 c0 38 -7 77 -19 102 -22 49 -82 104 -122
112 -32 6 -36 15 -15 33 45 37 39 130 -11 170 -57 45 -147 29 -178 -31 -21
-40 -19 -102 4 -130 l19 -24 -59 -28 c-54 -26 -89 -60 -75 -75 4 -3 19 6 34
20 39 37 61 46 128 53 172 20 274 -61 274 -217 l0 -48 -231 0 -231 0 2 73 c3
90 2 95 -10 77 -5 -8 -10 -45 -10 -82 l0 -68 -100 0 -101 0 3 275 c3 321 -1
307 103 313 85 6 84 22 -1 22 -59 0 -68 -3 -95 -29z m523 -134 c47 -60 -1
-157 -77 -157 -50 0 -95 44 -95 93 0 41 39 94 73 99 35 6 80 -10 99 -35z m746
-417 c4 -163 17 -150 -153 -150 -137 0 -145 -1 -159 -22 l-16 -22 0 21 c0 19
-7 22 -42 25 l-43 3 -3 114 c-1 63 0 121 2 128 4 11 47 13 208 11 l203 -3 3
-105z m-448 -91 c0 -59 14 -79 55 -79 32 0 35 -3 35 -29 0 -43 13 -45 50 -6
l34 35 137 0 c98 0 140 4 147 13 6 7 12 33 14 57 2 38 7 46 26 48 22 3 22 2
22 -107 l0 -111 -675 0 -675 0 0 110 0 110 415 0 415 0 0 -41z m515 -224 c0
-20 -8 -20 -664 -23 -405 -1 -669 2 -674 7 -5 5 -7 17 -4 25 6 15 74 16 674
14 660 -3 668 -3 668 -23z m-1307 -97 c9 -11 11 -18 4 -18 -14 0 -32 33 -31
57 1 16 2 15 6 -2 3 -11 12 -28 21 -37z m1292 3 c-6 -12 -16 -21 -22 -21 -6 0
-4 8 5 18 10 10 18 27 18 38 1 16 2 16 6 2 2 -9 -1 -26 -7 -37z m-543 -28
c-137 -2 -357 -2 -490 0 -133 1 -21 2 248 2 270 0 378 -1 242 -2z m456 0 c-29
-2 -78 -2 -110 0 -32 2 -8 3 52 3 61 0 87 -1 58 -3z m-473 -58 c0 -25 0 -25
-95 -25 -95 0 -95 0 -95 25 0 25 0 25 95 25 95 0 95 0 95 -25z m152 -72 c10
-9 18 -20 18 -25 0 -4 -119 -8 -265 -8 -146 0 -265 3 -265 7 0 3 7 15 17 25
15 16 36 18 246 18 200 0 233 -2 249 -17z"/>
<path d="M1214 1033 c-66 -54 -52 -142 26 -171 29 -10 72 -2 77 15 3 8 -9 11
-37 10 -33 -1 -46 4 -61 22 -42 52 -7 115 59 109 28 -2 37 1 37 12 0 23 -74
25 -101 3z"/>
<path d="M1369 1021 c-51 -51 -30 -135 38 -158 33 -11 75 -3 81 16 4 11 -3 12
-30 7 -48 -9 -88 22 -88 68 0 44 28 69 74 65 39 -4 58 7 36 21 -31 20 -81 11
-111 -19z"/>
<path d="M315 850 c-3 -5 0 -13 8 -16 23 -8 92 0 92 11 0 14 -92 19 -100 5z"/>
<path d="M447 854 c-18 -18 17 -24 149 -24 112 0 145 3 142 13 -3 9 -44 13
-144 15 -77 1 -143 0 -147 -4z"/>
<path d="M767 854 c-16 -17 11 -24 88 -24 79 0 114 11 79 24 -21 8 -159 8
-167 0z"/>
<path d="M315 770 c4 -6 55 -10 121 -10 69 0 114 4 114 10 0 6 -47 10 -121 10
-77 0 -118 -4 -114 -10z"/>
<path d="M585 770 c4 -6 63 -10 145 -10 82 0 141 4 145 10 4 6 -47 10 -145 10
-98 0 -149 -4 -145 -10z"/>
<path d="M905 770 c3 -5 40 -10 81 -10 43 0 74 4 74 10 0 6 -34 10 -81 10 -51
0 -78 -4 -74 -10z"/>
<path d="M1017 1432 c-21 -23 -25 -190 -5 -210 9 -9 77 -12 244 -12 198 0 235
2 248 16 12 12 16 36 16 100 0 114 -10 124 -121 124 -57 0 -80 -3 -77 -12 3
-7 28 -11 75 -9 94 3 103 -6 103 -103 0 -50 -4 -77 -14 -85 -9 -8 -81 -11
-237 -9 l-224 3 -3 87 c-3 108 -1 110 141 108 131 -2 129 -2 122 10 -4 6 -58
10 -129 10 -106 0 -125 -2 -139 -18z"/>
</g>
</svg>
