<!DOCTYPE svg PUBLIC "-//W3C//DTD SVG 1.1//EN" "http://www.w3.org/Graphics/SVG/1.1/DTD/svg11.dtd">

<!-- Uploaded to: SVG Repo, www.svgrepo.com, Transformed by: SVG Repo Mixer Tools -->
<svg fill="#000000" width="28" height="28" viewBox="0 0 24.00 24.00" xmlns="http://www.w3.org/2000/svg" stroke="#000000" stroke-width="0.9359999999999999">

<g id="SVGRepo_bgCarrier" stroke-width="0"/>

<g id="SVGRepo_tracerCarrier" stroke-linecap="round" stroke-linejoin="round"/>

<g id="SVGRepo_iconCarrier">

<path d="M10,20h4a2,2,0,0,1-4,0ZM12,2a1,1,0,0,0-1,1V4.093A5.961,5.961,0,0,0,9,4.8L18,14V10a6,6,0,0,0-5-5.91V3A1,1,0,0,0,12,2ZM6.417,7.831A5.967,5.967,0,0,0,6,10v6L4,18H16.586l2.707,2.707a1,1,0,0,0,1.414-1.414l-16-16A1,1,0,0,0,3.293,4.707Z"/>

</g>

</svg>